<svg width="30" height="30" viewBox="0 0 30 30" fill="none" xmlns="http://www.w3.org/2000/svg">
<path d="M11.6324 2.53352C12.9342 2.36155 13.9571 1.41575 14.1431 0.212005C14.1868 -0.0706682 14.6282 -0.0706682 14.6719 0.212005C14.8578 1.41575 15.8807 2.36155 17.1826 2.53352C17.4883 2.5739 17.4883 2.98202 17.1826 3.0224C15.8807 3.19437 14.8578 4.14017 14.6719 5.34392C14.6282 5.62659 14.1868 5.62659 14.1431 5.34392C13.9571 4.14017 12.9342 3.19437 11.6324 3.0224C11.3267 2.98202 11.3267 2.5739 11.6324 2.53352Z" fill="#7E97FF"/>
<path d="M2.61399 17.9612C7.00059 17.2852 10.438 14.1068 11.1692 10.0508L11.5243 8.08061C11.6317 7.48496 12.5576 7.48496 12.665 8.08061L13.0201 10.0508C13.7512 14.1068 17.1887 17.2852 21.5753 17.9612L23.7061 18.2896C24.3503 18.3889 24.3503 19.245 23.7061 19.3443L21.5753 19.6727C17.1887 20.3487 13.7512 23.527 13.0201 27.583L12.665 29.5533C12.5576 30.1489 11.6317 30.1489 11.5243 29.5533L11.1692 27.583C10.438 23.527 7.0006 20.3487 2.61399 19.6727L0.483155 19.3443C-0.16105 19.245 -0.161053 18.3889 0.483153 18.2896L2.61399 17.9612Z" fill="#7E97FF"/>
<path d="M23.0415 3.49365C22.5984 5.54233 20.8665 7.14371 18.6508 7.55344L17.6618 7.73634C17.2031 7.82115 17.2031 8.42742 17.6618 8.51223L18.6508 8.69513C20.8665 9.10486 22.5984 10.7062 23.0415 12.7549L23.2393 13.6694C23.3311 14.0935 23.9867 14.0935 24.0785 13.6694L24.2763 12.7549C24.7194 10.7062 26.4513 9.10486 28.667 8.69513L29.656 8.51223C30.1147 8.42742 30.1147 7.82115 29.656 7.73634L28.667 7.55344C26.4513 7.14371 24.7194 5.54232 24.2763 3.49365L24.0785 2.57916C23.9867 2.15511 23.3311 2.15511 23.2393 2.57916L23.0415 3.49365Z" fill="#7E97FF"/>
</svg>
